<svg width="23" height="23" viewBox="0 0 23 23" fill="none" xmlns="http://www.w3.org/2000/svg">
<path d="M2.43964 23.0001H18.5389L20.3947 11.1982H0.583984L2.43964 23.0001ZM17.9628 22.3262H3.01573L1.37205 11.8721H19.6065L17.9628 22.3262Z" fill="#C4975E"/>
<path d="M9.29492 2.76833C9.29492 3.42672 9.83065 3.96245 10.489 3.96245C11.1474 3.96245 11.6832 3.42672 11.6832 2.76833C11.6832 2.10977 11.1474 1.57422 10.489 1.57422C9.83065 1.57422 9.29492 2.10977 9.29492 2.76833ZM11.0093 2.76833C11.0093 3.05524 10.7759 3.28862 10.489 3.28862C10.2021 3.28862 9.96875 3.05524 9.96875 2.76833C9.96875 2.48143 10.2021 2.24805 10.489 2.24805C10.7759 2.24805 11.0093 2.48143 11.0093 2.76833Z" fill="#C4975E"/>
<path d="M2.72028 8.38273L3.1967 7.90631L2.72186 7.4313C2.46795 7.17756 2.46795 6.76659 2.72186 6.51268L5.0392 4.19534C5.55633 3.67822 5.5565 2.84102 5.0392 2.32389L4.56418 1.84888L4.08777 2.32529L4.56278 2.80031C4.81652 3.05405 4.81652 3.46501 4.56278 3.71875L2.24527 6.03626C1.72814 6.55339 1.72814 7.39059 2.24527 7.90771L2.72028 8.38273Z" fill="#C4975E"/>
<path d="M6.38103 5.53704L4.06369 7.85438C3.54657 8.37151 3.54639 9.2087 4.06369 9.72601L4.53871 10.2008L5.01512 9.72443L4.54029 9.24959C4.28637 8.99567 4.2862 8.58488 4.54029 8.33097L6.85762 6.01346C7.37352 5.49756 7.37352 4.65791 6.85762 4.14201L6.38261 3.66699L5.90602 4.14359L6.38103 4.61842C6.63424 4.87164 6.63424 5.28383 6.38103 5.53704Z" fill="#C4975E"/>
<path d="M6.90723 10.369L7.31696 10.904C8.49037 10.0051 9.16332 8.64284 9.16332 7.16656V6.96599C9.16332 5.82873 8.94696 4.65672 8.5202 3.48261C8.43703 3.25414 8.39491 3.01374 8.39491 2.76807C8.39491 1.58764 9.37337 0.62621 10.5759 0.675519C11.6479 0.718511 12.5288 1.59133 12.5812 2.66244C12.5955 2.9546 12.5511 3.23922 12.4489 3.50876C12.0287 4.61847 11.8155 5.78152 11.8155 6.96564V7.16656C11.8155 8.64284 12.4884 10.0051 13.6618 10.904L14.0716 10.369C13.0661 9.59883 12.4893 8.43156 12.4893 7.16656V6.96564C12.4893 5.86329 12.6878 4.78061 13.0791 3.7474C13.2142 3.39084 13.2731 3.01462 13.2542 2.62945C13.1849 1.213 12.0202 0.0588963 10.6029 0.00221751C9.02136 -0.0600765 7.72108 1.19809 7.72108 2.76807C7.72108 3.09253 7.77689 3.41031 7.88691 3.71283C8.28664 4.81289 8.48949 5.90734 8.48949 6.96599V7.16656C8.48949 8.43156 7.9127 9.59865 6.90723 10.369Z" fill="#C4975E"/>
<path d="M21.7794 2.59588C21.1918 2.25651 20.4413 2.45743 20.1019 3.04545L15.8164 10.4681L16.4 10.805L20.6855 3.38236C20.8385 3.11704 21.1772 3.02615 21.4425 3.17951C21.7078 3.33253 21.7986 3.6712 21.6454 3.93651L17.8744 10.4681L18.458 10.805L22.229 4.27343C22.5684 3.68576 22.3675 2.93525 21.7794 2.59588Z" fill="#C4975E"/>
<path d="M4.21191 12.4672L4.88241 12.4004L5.81261 21.7319L5.14211 21.7987L4.21191 12.4672Z" fill="#C4975E"/>
<path d="M15.166 21.7304L16.0962 12.3989L16.7667 12.4658L15.8365 21.7972L15.166 21.7304Z" fill="#C4975E"/>
<path d="M7.9873 12.4452L8.66061 12.4207L8.99963 21.7514L8.32615 21.776L7.9873 12.4452Z" fill="#C4975E"/>
<path d="M11.9775 21.7522L12.3166 12.4214L12.9899 12.446L12.651 21.7767L11.9775 21.7522Z" fill="#C4975E"/>
<path d="M17.6236 21.5923L16.958 21.4877L17.5883 17.4791L18.2539 17.5839L17.6236 21.5923ZM18.3237 17.1401L17.658 17.0354L17.7627 16.3698L18.4283 16.4744L18.3237 17.1401ZM18.4982 16.0306L17.8324 15.926L17.9372 15.2603L18.6027 15.365L18.4982 16.0306Z" fill="#C4975E"/>
<path d="M11.8219 10.6114C11.2806 9.87479 10.9165 9.01074 10.7692 8.11301L11.4343 8.00386C11.5643 8.79736 11.8861 9.56086 12.3648 10.2122L11.8219 10.6114ZM10.7115 7.63975C10.6989 7.4834 10.6924 7.32424 10.6924 7.16649V6.93855L11.3662 6.9403V7.16649C11.3662 7.30617 11.372 7.44725 11.3831 7.58553L10.7115 7.63975ZM11.3766 6.50529L10.7034 6.47511C10.7138 6.24419 10.7317 6.01098 10.7568 5.78198L11.4266 5.85516C11.4031 6.06994 11.3862 6.28876 11.3766 6.50529Z" fill="#C4975E"/>
<path d="M17.6305 10.4555L17.0469 10.1185L18.5035 7.59554L19.0871 7.93246L17.6305 10.4555ZM19.3117 7.54325L18.7281 7.20634L19.065 6.62288L19.6487 6.95979L19.3117 7.54325ZM19.8733 6.57076L19.2896 6.23385L19.6265 5.65039L20.2102 5.9873L19.8733 6.57076Z" fill="#C4975E"/>
</svg>
