<svg width="23" height="23" viewBox="0 0 23 23" fill="none" xmlns="http://www.w3.org/2000/svg">
<path d="M19.2255 3.66382H18.1029C17.9353 3.66382 17.8291 3.76997 17.8291 3.88726H17.8291V7.51779C17.8291 7.66859 18.0078 7.7468 18.1922 7.7468C18.3709 7.7468 18.5552 7.66863 18.5552 7.51779V6.22198H19.1808C19.9181 6.22198 20.4934 5.87006 20.4934 4.95406V4.92059C20.4934 4.00455 19.9349 3.66382 19.2255 3.66382ZM19.7673 5.00994C19.7673 5.44559 19.5439 5.65228 19.1808 5.65228H18.5552V4.30058H19.1808C19.5439 4.30058 19.7673 4.50727 19.7673 4.94292V5.00994Z" fill="#C4975E"/>
<path d="M13.1651 5.08323C12.1047 4.0229 10.695 3.43896 9.19546 3.43896C7.69593 3.43896 6.2862 4.0229 5.22587 5.08323C5.09789 5.21117 5.09789 5.41862 5.22587 5.5466C5.35381 5.67454 5.56125 5.67454 5.68919 5.5466C6.62576 4.61007 7.87095 4.09428 9.19542 4.09428C10.5199 4.09428 11.7651 4.61007 12.7016 5.5466C12.7657 5.61057 12.8495 5.64255 12.9334 5.64255C13.0172 5.64255 13.101 5.61057 13.1651 5.5466C13.293 5.41866 13.293 5.21117 13.1651 5.08323Z" fill="#C4975E"/>
<path d="M11.8131 6.43493C10.3696 4.99142 8.0209 4.99142 6.57743 6.43493C6.44945 6.56287 6.44945 6.77036 6.57743 6.8983C6.70537 7.02623 6.91286 7.02623 7.0408 6.8983C8.2288 5.71034 10.1618 5.71034 11.3498 6.8983C11.4137 6.96227 11.4976 6.99425 11.5814 6.99425C11.6653 6.99425 11.7491 6.96227 11.8131 6.8983C11.9411 6.77036 11.9411 6.56287 11.8131 6.43493Z" fill="#C4975E"/>
<path d="M10.4835 7.76537C9.77359 7.05542 8.61843 7.05542 7.90849 7.76537C7.7805 7.8933 7.7805 8.10075 7.90849 8.22874C8.03642 8.35672 8.24392 8.35667 8.37185 8.22874C8.82633 7.77431 9.56574 7.77431 10.0202 8.22874C10.0842 8.29275 10.168 8.32469 10.2519 8.32469C10.3357 8.32469 10.4196 8.2927 10.4835 8.22874C10.6115 8.10075 10.6115 7.89335 10.4835 7.76537Z" fill="#C4975E"/>
<path d="M16.123 14.1466C15.9812 14.0686 15.8413 13.9831 15.7073 13.8926L13.5401 12.4285C12.8823 11.9841 12.115 11.7493 11.3213 11.7493H7.34342C6.28753 11.7493 5.29404 12.1597 4.54592 12.905C4.16139 13.2881 3.72331 13.6086 3.24386 13.8575C2.96032 14.0048 2.78418 14.2946 2.78418 14.6138C2.78418 15.084 3.16664 15.4664 3.63679 15.4664H4.99298C5.17392 15.4664 5.32064 15.3197 5.32064 15.1388C5.32064 14.9578 5.17392 14.8111 4.99298 14.8111H3.63679C3.52799 14.8111 3.43945 14.7226 3.43945 14.6138C3.43945 14.5401 3.4802 14.4731 3.54583 14.4391C4.08448 14.1594 4.5766 13.7994 5.00839 13.3692C5.6328 12.7471 6.46205 12.4045 7.34337 12.4045H8.23395V14.8111H7.1454C6.96446 14.8111 6.81774 14.9578 6.81774 15.1388C6.81774 15.3197 6.96446 15.4664 7.1454 15.4664H16.1297C16.399 15.4664 16.6181 15.2473 16.6181 14.978C16.6181 14.6331 16.4284 14.3145 16.123 14.1466ZM8.88935 14.8112V12.4046H11.3213C11.9839 12.4046 12.6243 12.6006 13.1733 12.9715L15.3405 14.4356C15.491 14.5372 15.648 14.6332 15.8073 14.7208C15.8485 14.7435 15.8831 14.7747 15.909 14.8112H8.88935Z" fill="#C4975E"/>
<path d="M9.70107 15.9646H8.68899C8.50804 15.9646 8.36133 16.1113 8.36133 16.2923C8.36133 16.4732 8.50804 16.6199 8.68899 16.6199H9.70107C9.88202 16.6199 10.0287 16.4732 10.0287 16.2923C10.0287 16.1113 9.88202 15.9646 9.70107 15.9646Z" fill="#C4975E"/>
<path d="M22.7173 15.6895L22.6138 15.5177C22.2238 14.8705 21.5749 14.4147 20.8338 14.2672L19.9879 14.099V9.81137H22.177C22.6277 9.81137 22.9944 9.44468 22.9944 8.99398V2.61281C22.9944 2.16206 22.6277 1.79541 22.177 1.79541H15.7958C15.3451 1.79541 14.9784 2.16211 14.9784 2.61281V5.03341C14.9784 5.21436 15.1251 5.36107 15.3061 5.36107C15.4871 5.36107 15.6337 5.21436 15.6337 5.03341V2.61281C15.6337 2.52341 15.7065 2.45068 15.7959 2.45068H22.1771C22.2665 2.45068 22.3392 2.52341 22.3392 2.61281V8.99402C22.3392 9.08342 22.2665 9.15614 22.1771 9.15614H15.7958C15.7064 9.15614 15.6337 9.08342 15.6337 8.99402V7.16351C15.6337 6.98256 15.487 6.83585 15.306 6.83585C15.125 6.83585 14.9784 6.98256 14.9784 7.16351V8.99402C14.9784 9.44477 15.3451 9.81142 15.7958 9.81142H18.2782V13.7591L17.8433 13.6726C17.2432 13.5533 16.6581 13.1911 16.2701 12.9289L14.1029 11.4649C13.2784 10.9079 12.3167 10.6135 11.3217 10.6135H7.34384C6.02023 10.6135 4.77486 11.128 3.83721 12.0621C3.24389 12.6533 2.49702 13.0564 1.67733 13.2281L1.20691 13.3266C0.50757 13.4731 0 14.098 0 14.8125V17.9858C0 18.3643 0.223485 18.7083 0.569427 18.862L1.87449 19.442C1.95342 19.8547 2.15224 20.2488 2.4711 20.5677C2.89484 20.9914 3.45147 21.2033 4.00814 21.2033C4.56481 21.2033 5.12139 20.9914 5.54518 20.5677C5.81772 20.2952 6.00208 19.9675 6.09933 19.6204H16.981C17.0782 19.9675 17.2626 20.2952 17.5352 20.5677C17.9458 20.9782 18.4916 21.2044 19.0722 21.2044C19.6528 21.2044 20.1987 20.9783 20.6093 20.5677C20.8819 20.2952 21.0662 19.9675 21.1635 19.6204H21.785C22.455 19.6204 23 19.0754 23 18.4055V16.706C22.9999 16.3478 22.9022 15.9963 22.7173 15.6895ZM18.9335 9.81137H19.3326V13.9687L18.9335 13.8893V9.81137ZM5.08177 20.1044C4.79499 20.3912 4.41369 20.5491 4.00809 20.5491C3.6025 20.5491 3.2212 20.3912 2.93442 20.1044C2.47438 19.6443 2.37205 18.9602 2.62693 18.4002C2.629 18.3957 2.63097 18.3912 2.63304 18.3867C2.64081 18.3701 2.64903 18.3536 2.65743 18.3373C2.66139 18.3296 2.66534 18.3219 2.66947 18.3142C2.67706 18.3 2.68497 18.2859 2.69306 18.2719C2.69863 18.2623 2.70433 18.2527 2.71013 18.2432C2.71763 18.2308 2.72522 18.2185 2.73313 18.2063C2.74027 18.1953 2.74764 18.1845 2.75509 18.1736C2.76246 18.1629 2.76978 18.1521 2.77742 18.1416C2.78618 18.1295 2.7953 18.1176 2.80446 18.1058C2.8116 18.0965 2.81857 18.0872 2.82593 18.078C2.83672 18.0647 2.84799 18.0517 2.85922 18.0386C2.86564 18.0312 2.8718 18.0236 2.87836 18.0163C2.89507 17.9978 2.91227 17.9796 2.92997 17.9617C2.9315 17.9602 2.93289 17.9586 2.93442 17.9571C2.93779 17.9537 2.94134 17.9506 2.94475 17.9472C2.95976 17.9325 2.97485 17.9179 2.99026 17.904C2.99426 17.9003 2.99848 17.897 3.00252 17.8934C3.01788 17.8798 3.03334 17.8662 3.04915 17.8533C3.05063 17.8521 3.0522 17.851 3.05369 17.8498C3.60905 17.4004 4.41005 17.4009 4.96475 17.8516C4.96537 17.8521 4.96605 17.8526 4.96672 17.8531C4.98366 17.8669 5.00023 17.8814 5.01672 17.896C5.01969 17.8986 5.02274 17.9011 5.02566 17.9037C5.04471 17.921 5.06339 17.9387 5.08172 17.957C5.10149 17.9768 5.12053 17.9971 5.13904 18.0178C5.14717 18.0268 5.15485 18.0361 5.16272 18.0453C5.17233 18.0566 5.18199 18.0678 5.19124 18.0793C5.20162 18.0922 5.21164 18.1053 5.22152 18.1184C5.22709 18.1257 5.23261 18.1331 5.238 18.1405C5.25 18.1571 5.26168 18.1738 5.27295 18.1907C5.27489 18.1936 5.27677 18.1965 5.27866 18.1994C5.66409 18.7881 5.5985 19.5876 5.08177 20.1044ZM20.1459 20.1044C19.859 20.3912 19.4777 20.5491 19.0721 20.5491C18.6665 20.5491 18.2853 20.3912 17.9985 20.1044C17.4817 19.5876 17.4161 18.7879 17.8016 18.1993C17.8034 18.1965 17.8053 18.1936 17.8071 18.1908C17.8184 18.1739 17.8301 18.1571 17.8422 18.1405C17.8475 18.1331 17.853 18.1258 17.8585 18.1186C17.8685 18.1054 17.8785 18.0922 17.889 18.0793C17.8982 18.0679 17.9077 18.0567 17.9173 18.0456C17.9252 18.0363 17.933 18.0269 17.9412 18.0178C17.9597 17.9971 17.9788 17.9768 17.9986 17.9571C18.2853 17.6703 18.6666 17.5123 19.0722 17.5123C19.4778 17.5123 19.8591 17.6703 20.1459 17.9571C20.1656 17.9768 20.1847 17.9972 20.2032 18.0178C20.2114 18.0269 20.219 18.0362 20.2269 18.0455C20.2366 18.0567 20.2462 18.0679 20.2554 18.0793C20.2658 18.0922 20.2758 18.1054 20.2857 18.1185C20.2913 18.1258 20.2968 18.1332 20.3022 18.1406C20.3142 18.1572 20.3259 18.1738 20.3371 18.1908C20.3391 18.1936 20.341 18.1965 20.3428 18.1994C20.7282 18.788 20.6626 19.5876 20.1459 20.1044ZM22.3447 18.4055H22.3446C22.3446 18.7141 22.0936 18.9652 21.785 18.9652H21.2455C21.2327 18.4899 21.065 18.0365 20.7631 17.6648C20.7611 17.6623 20.7591 17.6597 20.7571 17.6572C20.7384 17.6344 20.719 17.6121 20.6993 17.5899C20.6943 17.5842 20.6895 17.5784 20.6845 17.5727C20.6636 17.5498 20.6421 17.5273 20.6201 17.5051C20.6164 17.5013 20.613 17.4973 20.6092 17.4936C20.3269 17.2114 19.9807 17.0163 19.6032 16.9219C19.4316 16.879 19.2536 16.857 19.0721 16.857C18.927 16.857 18.784 16.8711 18.6448 16.8987C18.227 16.9815 17.843 17.1857 17.5351 17.4936C17.5314 17.4973 17.528 17.5012 17.5244 17.5049C17.5024 17.5272 17.4807 17.5498 17.4599 17.5728C17.4549 17.5782 17.4503 17.5839 17.4455 17.5894C17.4256 17.6118 17.406 17.6343 17.3872 17.6573C17.3853 17.6596 17.3836 17.662 17.3817 17.6643C17.0796 18.0361 16.9117 18.4897 16.8988 18.9652H6.18145C6.16856 18.4892 6.00028 18.035 5.69742 17.6629C5.69603 17.6611 5.69468 17.6594 5.69329 17.6576C5.67352 17.6335 5.65299 17.6098 5.6321 17.5863C5.62824 17.582 5.62465 17.5776 5.62074 17.5733C5.59626 17.5463 5.5711 17.5197 5.54509 17.4937C5.43916 17.3877 5.32488 17.295 5.20445 17.2155C4.84301 16.9772 4.42555 16.858 4.00809 16.858C3.45147 16.858 2.8948 17.0699 2.47105 17.4937C2.44684 17.5179 2.42344 17.5427 2.40053 17.5679C2.39374 17.5753 2.38723 17.5829 2.38054 17.5904C2.36436 17.6087 2.34846 17.6272 2.33296 17.6459C2.32609 17.6542 2.31922 17.6625 2.31248 17.671C2.29644 17.691 2.28081 17.7112 2.26554 17.7316C2.26077 17.738 2.25588 17.7442 2.25125 17.7507C2.21019 17.8069 2.1721 17.8648 2.13688 17.9242C2.13589 17.9259 2.13495 17.9276 2.13396 17.9293C2.11676 17.9585 2.10027 17.9882 2.0845 18.0181C2.08405 18.019 2.0836 18.0199 2.08311 18.0207C1.96887 18.2381 1.89206 18.4732 1.85684 18.7171L0.835633 18.2632C0.726114 18.2145 0.655363 18.1056 0.655363 17.9858V14.8125C0.655363 14.4064 0.943895 14.0512 1.34141 13.9679L1.81183 13.8694C2.75608 13.6716 3.61642 13.2072 4.29986 12.5263C5.11384 11.7153 6.19493 11.2687 7.34398 11.2687H11.3218C12.1856 11.2687 13.0205 11.5243 13.7362 12.0078L15.9035 13.4719C16.3383 13.7657 16.9994 14.1728 17.7156 14.3153L20.7061 14.9099C21.2668 15.0215 21.7576 15.3663 22.0526 15.8559L22.1561 16.0277C22.2795 16.2324 22.3447 16.467 22.3447 16.706V18.4055Z" fill="#C4975E"/>
<path d="M4.71185 18.3275C4.5239 18.1396 4.27413 18.0361 4.00842 18.0361C3.74271 18.0361 3.4929 18.1396 3.30503 18.3275C3.11717 18.5154 3.01367 18.7652 3.01367 19.0309C3.01367 19.2966 3.11717 19.5464 3.30503 19.7343C3.4929 19.9221 3.74271 20.0256 4.00846 20.0256C4.27418 20.0256 4.52399 19.9222 4.71185 19.7343C5.0997 19.3464 5.0997 18.7153 4.71185 18.3275ZM4.24844 19.2709C4.18433 19.335 4.09907 19.3703 4.00842 19.3703C3.91772 19.3703 3.8325 19.335 3.7684 19.2709C3.7043 19.2067 3.66894 19.1215 3.66894 19.0308C3.66894 18.9401 3.70425 18.8549 3.7684 18.7908C3.8325 18.7267 3.91772 18.6914 4.00842 18.6914C4.09907 18.6914 4.18433 18.7267 4.24844 18.7908C4.38077 18.9232 4.38077 19.1386 4.24844 19.2709Z" fill="#C4975E"/>
<path d="M19.7758 18.3275C19.588 18.1396 19.3382 18.0361 19.0724 18.0361C18.8067 18.0361 18.5569 18.1396 18.369 18.3275C17.9812 18.7153 17.9812 19.3464 18.369 19.7343C18.5569 19.9222 18.8067 20.0256 19.0724 20.0256C19.3382 20.0256 19.5879 19.9222 19.7758 19.7343C19.9637 19.5464 20.0672 19.2966 20.0672 19.0309C20.0672 18.7652 19.9637 18.5154 19.7758 18.3275ZM19.3124 19.2709C19.2483 19.335 19.1631 19.3704 19.0724 19.3704C18.9818 19.3704 18.8965 19.335 18.8324 19.2709C18.7001 19.1386 18.7001 18.9232 18.8324 18.7909C18.8965 18.7268 18.9818 18.6915 19.0724 18.6915C19.1631 18.6915 19.2483 18.7268 19.3125 18.7909C19.3766 18.855 19.4119 18.9402 19.4119 19.0309C19.4119 19.1215 19.3766 19.2068 19.3124 19.2709Z" fill="#C4975E"/>
</svg>
