<svg width="23" height="23" viewBox="0 0 23 23" fill="none" xmlns="http://www.w3.org/2000/svg">
<path d="M11.8829 10.7334H11.1162V11.5001H11.8829V10.7334Z" fill="#C4975E"/>
<path d="M12.6496 12.2666H10.3496V13.0333H12.6496V12.2666Z" fill="#C4975E"/>
<path d="M19.5704 19.1658C19.4255 19.1651 19.2808 19.1783 19.1383 19.2049C18.9506 17.9506 17.7815 17.0859 16.5271 17.2737C15.5289 17.4231 14.7452 18.2067 14.5958 19.2049C14.3236 19.1528 14.0439 19.1528 13.7717 19.2049C13.5839 17.9506 12.4149 17.0859 11.1604 17.2737C10.1622 17.4231 9.37857 18.2067 9.22916 19.2049C8.9569 19.1528 8.67726 19.1528 8.40499 19.2049C8.21726 17.9506 7.04819 17.0859 5.79378 17.2737C4.79553 17.4231 4.0119 18.2067 3.86249 19.2049C2.61915 18.9721 1.42243 19.7912 1.18956 21.0345C1.16287 21.177 1.14979 21.3217 1.15041 21.4666V22.6166C1.15041 22.8283 1.32205 22.9999 1.53375 22.9999H5.36708C5.57877 22.9999 5.75041 22.8283 5.75041 22.6166V21.4666C5.74965 21.3381 5.7381 21.2099 5.71591 21.0833H6.55158C6.52939 21.2099 6.51785 21.3381 6.51708 21.4666V22.6166C6.51708 22.8283 6.68872 22.9999 6.90041 22.9999H10.7337C10.9454 22.9999 11.1171 22.8283 11.1171 22.6166V21.4666C11.1163 21.3381 11.1048 21.2099 11.0826 21.0833H11.9182C11.8961 21.2099 11.8845 21.3381 11.8837 21.4666V22.6166C11.8837 22.8283 12.0554 22.9999 12.2671 22.9999H16.1004C16.3121 22.9999 16.4837 22.8283 16.4837 22.6166V21.4666C16.483 21.3381 16.4714 21.2099 16.4492 21.0833H17.2849C17.2627 21.2099 17.2512 21.3381 17.2504 21.4666V22.6166C17.2504 22.8283 17.4221 22.9999 17.6337 22.9999H21.4671C21.6788 22.9999 21.8504 22.8283 21.8504 22.6166V21.4666C21.8562 20.2017 20.8354 19.1716 19.5704 19.1658ZM4.98375 22.2333H1.91708V21.4666C1.91708 20.6198 2.60358 19.9333 3.45041 19.9333C4.29724 19.9333 4.98375 20.6198 4.98375 21.4666V22.2333ZM6.82835 20.3166H5.43915C5.23861 19.9712 4.95202 19.6837 4.60731 19.4821C4.64004 18.6391 5.34997 17.9822 6.19302 18.0149C6.99016 18.0459 7.62927 18.685 7.66018 19.4821C7.31547 19.6837 7.02888 19.9712 6.82835 20.3166ZM10.3504 22.2333H7.28374V21.4666C7.28374 20.6198 7.97025 19.9333 8.81708 19.9333C9.66391 19.9333 10.3504 20.6198 10.3504 21.4666V22.2333ZM12.195 20.3166H10.8058C10.6053 19.9712 10.3187 19.6837 9.97398 19.4821C10.0067 18.6391 10.7166 17.9822 11.5597 18.0149C12.3568 18.0459 12.9959 18.685 13.0268 19.4821C12.6821 19.6837 12.3955 19.9712 12.195 20.3166ZM15.7171 22.2333H12.6504V21.4666C12.6504 20.6198 13.3369 19.9333 14.1837 19.9333C15.0306 19.9333 15.7171 20.6198 15.7171 21.4666V22.2333ZM17.5617 20.3166H16.1725C15.9719 19.9712 15.6854 19.6837 15.3406 19.4821C15.3734 18.6391 16.0833 17.9822 16.9264 18.0149C17.7235 18.0459 18.3626 18.685 18.3935 19.4821C18.0488 19.6837 17.7622 19.9712 17.5617 20.3166ZM21.0837 22.2333H18.0171V21.4666C18.0171 20.6198 18.7036 19.9333 19.5504 19.9333C20.3972 19.9333 21.0837 20.6198 21.0837 21.4666V22.2333Z" fill="#C4975E"/>
<path d="M22.6167 0H0.383333C0.171637 0 0 0.171637 0 0.383333V1.91667C0 2.12836 0.171637 2.3 0.383333 2.3H1.15V12.65C1.15 12.8617 1.32164 13.0333 1.53333 13.0333H8.57632L8.75303 14.1833H8.43333C8.22164 14.1833 8.05 14.355 8.05 14.5667V16.1C8.05 16.3117 8.22164 16.4833 8.43333 16.4833H14.5667C14.7784 16.4833 14.95 16.3117 14.95 16.1V14.5667C14.95 14.355 14.7784 14.1833 14.5667 14.1833H14.247L14.4237 13.0333H21.4667C21.6784 13.0333 21.85 12.8617 21.85 12.65V2.3H22.6167C22.8284 2.3 23 2.12836 23 1.91667V0.383333C23 0.171637 22.8284 0 22.6167 0ZM14.1833 15.7167H8.81667V14.95H14.1833V15.7167ZM8.8803 9.96667H14.1197L13.4711 14.1833H9.5289L8.8803 9.96667ZM7.58272 9.2L7.39105 8.43333H15.609L15.4173 9.2H7.58272ZM21.0833 12.2667H14.5417L14.8956 9.96667H15.7167C15.8926 9.96662 16.0459 9.84683 16.0885 9.6761L16.4718 8.14277C16.5231 7.93735 16.3981 7.72929 16.1927 7.67807C16.1623 7.6705 16.1312 7.66667 16.1 7.66667H15.3333V6.51667C15.3333 6.41499 15.2929 6.31752 15.221 6.24565L14.4517 5.47592C14.5267 5.32249 14.566 5.15411 14.5667 4.98333C14.5667 4.3482 14.0518 3.83333 13.4167 3.83333C12.7815 3.83333 12.2667 4.3482 12.2667 4.98333C12.2667 5.61847 12.7815 6.13333 13.4167 6.13333C13.5874 6.13266 13.7558 6.09337 13.9092 6.01833L14.5667 6.67537V7.66667H8.43333V6.67537L9.09075 6.01833C9.24418 6.09337 9.41256 6.13266 9.58333 6.13333C10.2185 6.13333 10.7333 5.61847 10.7333 4.98333C10.7333 4.3482 10.2185 3.83333 9.58333 3.83333C8.9482 3.83333 8.43333 4.3482 8.43333 4.98333C8.434 5.15411 8.4733 5.32249 8.54833 5.47592L7.7786 6.24565C7.70687 6.31757 7.66657 6.41508 7.66667 6.51667V7.66667H6.9C6.6883 7.66671 6.51671 7.8384 6.51676 8.0501C6.51676 8.08134 6.5206 8.11244 6.52817 8.14277L6.9115 9.6761C6.9541 9.84683 7.10738 9.96662 7.28333 9.96667H8.10443L8.45825 12.2667H1.91667V2.3H21.0833V12.2667ZM13.8 4.98333C13.8 5.19503 13.6284 5.36667 13.4167 5.36667C13.205 5.36667 13.0333 5.19503 13.0333 4.98333C13.0333 4.77164 13.205 4.6 13.4167 4.6C13.6284 4.6 13.8 4.77164 13.8 4.98333ZM9.2 4.98333C9.2 4.77164 9.37164 4.6 9.58333 4.6C9.79503 4.6 9.96667 4.77164 9.96667 4.98333C9.96667 5.19503 9.79503 5.36667 9.58333 5.36667C9.37164 5.36667 9.2 5.19503 9.2 4.98333ZM22.2333 1.53333H0.766667V0.766667H22.2333V1.53333Z" fill="#C4975E"/>
</svg>
