<svg width="23" height="23" viewBox="0 0 23 23" fill="none" xmlns="http://www.w3.org/2000/svg">
<g opacity="0.7">
<path d="M20.9785 4.0752H18.8416C18.5634 3.29082 17.8142 2.72754 16.9355 2.72754H12.8926C11.778 2.72754 10.8711 3.6344 10.8711 4.74902C10.8711 5.86365 11.778 6.77051 12.8926 6.77051H13.6819C13.96 7.55489 14.7093 8.11816 15.5879 8.11816H23V6.09668C23 4.98206 22.0931 4.0752 20.9785 4.0752ZM21.6523 6.77051H15.5879C15.2164 6.77051 14.9141 6.46816 14.9141 6.09668V5.42285H12.8926C12.5211 5.42285 12.2188 5.12051 12.2188 4.74902C12.2188 4.37754 12.5211 4.0752 12.8926 4.0752H16.9355C17.307 4.0752 17.6094 4.37754 17.6094 4.74902V5.42285H20.9785C21.35 5.42285 21.6523 5.7252 21.6523 6.09668V6.77051Z" fill="#C4975E"/>
<path d="M12.2188 9.46588C11.789 9.46588 11.3626 9.4715 10.9408 9.48238L5.355 1.66211L4.25828 2.44543L9.33305 9.55011C7.31226 9.67049 5.45029 9.91703 3.92101 10.2729C1.28255 10.8871 0 11.7251 0 12.835C0 13.9449 1.28255 14.783 3.92101 15.3971C7.7771 16.2947 12.1298 16.1992 12.2188 16.2042C12.8417 16.2042 13.4573 16.1922 14.0611 16.1694L17.7348 21.3126L18.8316 20.5293L15.6544 16.0812C21.0206 15.6884 22.7856 14.6084 23 14.5443V11.1259C22.8565 11.0889 20.0383 9.46588 12.2188 9.46588ZM1.34959 12.835C1.38029 12.7694 1.7502 12.1343 4.41761 11.5419C4.49149 11.5256 4.56624 11.5097 4.64152 11.4937C5.10653 12.6759 5.87985 13.7366 6.86884 14.5429C5.98584 14.432 5.1611 14.2931 4.41761 14.1281C1.7502 13.5357 1.38029 12.9008 1.34959 12.835ZM12.2188 14.8565C11.8713 14.8565 11.526 14.8528 11.1834 14.8455C8.92506 14.7084 6.91148 13.2969 5.99918 11.2485C7.29138 11.0494 8.73959 10.9151 10.2638 10.853L13.1174 14.8479C12.8201 14.8533 12.5206 14.8565 12.2188 14.8565ZM11.8925 10.8148C12.0012 10.8141 12.1098 10.8135 12.2188 10.8135C14.7074 10.8135 17.0587 11.0027 18.957 11.3361V14.3341C17.7138 14.5524 16.2763 14.7089 14.7326 14.7909L11.8925 10.8148ZM21.6523 13.6503C21.2588 13.7965 20.806 13.9314 20.3047 14.0542V11.6158C20.806 11.7386 21.2588 11.8736 21.6523 12.0199V13.6503Z" fill="#C4975E"/>
</g>
</svg>
