<svg width="23" height="23" viewBox="0 0 23 23" fill="none" xmlns="http://www.w3.org/2000/svg">
<path d="M22.8916 8.27L19.1819 4.56031C19.1285 4.50708 19.0602 4.47137 18.986 4.45793L14.9054 3.71599C14.7038 3.67931 14.5107 3.813 14.474 4.01457C14.47 4.03637 14.468 4.05849 14.468 4.08065C14.4669 4.19853 14.4564 4.31612 14.4365 4.43233L11.8712 3.7913V3.67259C12.8749 3.46772 13.5225 2.48794 13.3176 1.48424C13.1128 0.480541 12.133 -0.167031 11.1293 0.0378367C10.2658 0.214093 9.6456 0.973558 9.64542 1.85484H10.3874C10.3874 1.24019 10.8856 0.741935 11.5003 0.741935C12.1149 0.741935 12.6132 1.24019 12.6132 1.85484C12.6132 2.46949 12.1149 2.96775 11.5003 2.96775C11.2954 2.96775 11.1293 3.13385 11.1293 3.33871V3.79092L8.56405 4.43233C8.54415 4.31612 8.53358 4.19853 8.53251 4.08065C8.53256 3.97061 8.48378 3.86628 8.39934 3.79575C8.31536 3.72424 8.20337 3.69489 8.09514 3.71599L4.01449 4.45793C3.9403 4.47137 3.87199 4.50708 3.81862 4.56031L0.108934 8.27C-0.0358828 8.41486 -0.0358828 8.64968 0.108934 8.79455L3.07668 11.7623C3.22154 11.9071 3.45637 11.9071 3.60123 11.7623L4.45186 10.9117V13.3549H1.85508C0.83376 13.3519 0.00343989 14.1775 0.00047214 15.1988C-0.00124359 15.7887 0.278559 16.344 0.753677 16.6936C-0.0658385 17.2924 -0.244784 18.4421 0.354051 19.2617C0.465852 19.4147 0.600653 19.5495 0.753677 19.6613C-0.068899 20.2666 -0.245016 21.4242 0.360311 22.2468C0.709949 22.7219 1.26524 23.0017 1.85508 23H15.2099C15.3083 23 15.4027 22.9609 15.4722 22.8913L18.44 19.9236C18.5086 19.8537 18.5466 19.7593 18.5453 19.6613H18.5487V10.9117L19.3993 11.7623C19.5442 11.9071 19.779 11.9071 19.9238 11.7623L22.8916 8.79455C23.0364 8.64968 23.0364 8.41481 22.8916 8.27ZM11.5003 4.46275L14.1979 5.13717C13.6388 6.09023 12.6048 6.66282 11.5003 6.63106C10.3957 6.66282 9.36172 6.09023 8.80258 5.13717L11.5003 4.46275ZM0.742177 15.2097C0.742177 14.5951 1.24043 14.0968 1.85508 14.0968H10.0164C10.631 14.0968 11.1293 14.5951 11.1293 15.2097C11.1293 15.8244 10.631 16.3226 10.0164 16.3226H1.85508C1.24043 16.3226 0.742177 15.8243 0.742177 15.2097ZM0.742177 18.1775C0.742177 17.5628 1.24043 17.0645 1.85508 17.0645H10.0164C10.631 17.0645 11.1293 17.5628 11.1293 18.1775C11.1293 18.7921 10.631 19.2904 10.0164 19.2904H1.85508C1.24043 19.2904 0.742177 18.7921 0.742177 18.1775ZM10.0164 22.2581H9.27445H1.85508C1.24043 22.2581 0.742177 21.7598 0.742177 21.1452C0.742177 20.5306 1.24043 20.0323 1.85508 20.0323H10.0164C10.631 20.0323 11.1293 20.5306 11.1293 21.1452C11.1293 21.7598 10.631 22.2581 10.0164 22.2581ZM15.5809 21.7336V20.0323H17.2822L15.5809 21.7336ZM19.6616 10.9755L17.3271 8.64096L16.8025 9.16551L17.8067 10.1697V19.2904H15.2099C15.0051 19.2904 14.839 19.4565 14.839 19.6613V22.2581H11.4906C12.108 21.4582 11.9602 20.3093 11.1603 19.6918C11.1469 19.6814 11.1334 19.6713 11.1196 19.6613C11.9392 19.0625 12.1181 17.9128 11.5193 17.0932C11.4075 16.9402 11.2727 16.8054 11.1196 16.6936C11.9423 16.0882 12.1184 14.9306 11.513 14.1081C11.163 13.6324 10.6069 13.3526 10.0164 13.3549H5.1938V10.1697L6.19801 9.16551L5.67346 8.64096L3.33896 10.9755L0.895758 8.53227L4.26118 5.16685L7.82248 4.51951C8.06509 6.12803 9.62168 7.37299 11.4995 7.37299C13.3774 7.37299 14.9339 6.12803 15.1766 4.51951L18.7379 5.16685L22.1048 8.53227L19.6616 10.9755Z" fill="#C4975E"/>
<path d="M10.3876 14.8389H1.48438V15.5808H10.3876V14.8389Z" fill="#C4975E"/>
<path d="M10.0166 17.8064H1.48438V18.5483H10.0166V17.8064Z" fill="#C4975E"/>
<path d="M10.0166 20.7742H1.48438V21.5161H10.0166V20.7742Z" fill="#C4975E"/>
</svg>
