<svg width="23" height="23" viewBox="0 0 23 23" fill="none" xmlns="http://www.w3.org/2000/svg">
<g clip-path="url(#clip0_784_238)">
<path d="M7.98419 17.1023C7.93979 17.183 7.87101 17.2072 7.80643 17.2072C7.74186 17.2072 7.67728 17.183 7.63289 17.1023L7.1684 16.23V17.9986C7.1684 18.1078 7.03522 18.1643 6.90607 18.1643C6.7727 18.1643 6.64355 18.1078 6.64355 17.9986V15.4747C6.64355 15.281 6.7727 15.2124 6.90607 15.2124C7.09576 15.2124 7.18069 15.2528 7.31387 15.4909L7.81064 16.3955L8.30724 15.4909C8.4406 15.2528 8.52939 15.2124 8.71926 15.2124C8.85244 15.2124 8.98159 15.281 8.98159 15.4747V17.9986C8.98159 18.1078 8.84841 18.1643 8.71926 18.1643C8.5859 18.1643 8.45675 18.1078 8.45675 17.9986V16.2623L7.98419 17.1023Z" fill="#C4975E"/>
<path d="M10.444 16.4801H11.0578C11.1627 16.4801 11.2233 16.5812 11.2233 16.6902C11.2233 16.783 11.1708 16.8922 11.0578 16.8922H10.444V17.7037H11.5867C11.6918 17.7037 11.7523 17.8127 11.7523 17.938C11.7523 18.047 11.6998 18.1642 11.5867 18.1642H10.1492C10.0321 18.1642 9.91895 18.1075 9.91895 17.9985V15.3778C9.91895 15.2688 10.032 15.2122 10.1492 15.2122H11.5867C11.6998 15.2122 11.7523 15.3294 11.7523 15.4383C11.7523 15.5636 11.6918 15.6726 11.5867 15.6726H10.444V16.4801Z" fill="#C4975E"/>
<path d="M13.904 17.9985L13.0358 16.3752V17.9985C13.0358 18.1077 12.9026 18.1642 12.7733 18.1642C12.6401 18.1642 12.5107 18.1077 12.5107 17.9985V15.3778C12.5107 15.2648 12.6401 15.2123 12.7733 15.2123C12.9631 15.2123 13.0398 15.2527 13.1651 15.4908L13.9444 16.9971V15.3738C13.9444 15.2608 14.0735 15.2122 14.2069 15.2122C14.336 15.2122 14.4692 15.2606 14.4692 15.3738V17.9985C14.4692 18.1075 14.336 18.1642 14.2069 18.1642C14.0816 18.1642 13.9726 18.1238 13.904 17.9985Z" fill="#C4975E"/>
<path d="M16.807 15.3738C16.807 15.2608 16.9362 15.2124 17.0693 15.2124C17.1987 15.2124 17.3319 15.2608 17.3319 15.3738V17.2637C17.3319 17.9381 16.9039 18.1885 16.3627 18.1885C15.8175 18.1885 15.3936 17.9381 15.3936 17.2637V15.3738C15.3936 15.2608 15.5227 15.2124 15.6561 15.2124C15.7852 15.2124 15.9184 15.2608 15.9184 15.3738V17.2637C15.9184 17.5787 16.0841 17.7282 16.3627 17.7282C16.6414 17.7282 16.8068 17.5787 16.8068 17.2637V15.3738H16.807Z" fill="#C4975E"/>
<path d="M17.8456 18.9636H15.9261C15.7376 18.9636 15.585 19.1163 15.585 19.3046C15.585 19.493 15.7376 19.6455 15.9261 19.6455H17.8456C18.0341 19.6455 18.1866 19.493 18.1866 19.3046C18.1866 19.1163 18.0341 18.9636 17.8456 18.9636Z" fill="#C4975E"/>
<path d="M14.3393 18.9636H6.57044C6.38216 18.9636 6.22949 19.1163 6.22949 19.3046C6.22949 19.493 6.38216 19.6455 6.57044 19.6455H14.3393C14.5277 19.6455 14.6802 19.493 14.6802 19.3046C14.6802 19.1163 14.5277 18.9636 14.3393 18.9636Z" fill="#C4975E"/>
<path d="M17.8455 13.7568H6.57044C6.38216 13.7568 6.22949 13.9095 6.22949 14.0978C6.22949 14.2861 6.38216 14.4387 6.57044 14.4387H17.8455C18.0339 14.4387 18.1864 14.2861 18.1864 14.0978C18.1864 13.9095 18.0339 13.7568 17.8455 13.7568Z" fill="#C4975E"/>
<path d="M17.6558 9.52924H17.3248C17.1971 7.1798 15.4797 5.2464 13.232 4.78876L13.2978 4.15968C13.3194 3.95438 13.2524 3.74872 13.1143 3.59553C12.9762 3.44216 12.7786 3.35425 12.5722 3.35425H11.8438C11.6373 3.35425 11.4399 3.44234 11.3016 3.59553C11.1635 3.74889 11.0967 3.95455 11.1182 4.15968L11.184 4.78876C8.93638 5.2464 7.219 7.17962 7.09125 9.52906H6.76031C6.46761 9.52906 6.22949 9.76718 6.22949 10.0599V10.7635C6.22949 11.0562 6.46761 11.2944 6.76031 11.2944H17.6556C17.9483 11.2944 18.1864 11.0562 18.1864 10.7635V10.0599C18.1864 9.76736 17.9485 9.52924 17.6558 9.52924ZM11.8084 4.05194C11.8179 4.04159 11.8296 4.03632 11.8438 4.03632H12.5722C12.5863 4.03632 12.5982 4.04159 12.6077 4.05194C12.6172 4.06247 12.6212 4.07493 12.6196 4.08879L12.5559 4.69804C12.441 4.69032 12.325 4.68593 12.2081 4.68593C12.0911 4.68593 11.9753 4.69032 11.8603 4.69804L11.7965 4.08879C11.7951 4.07493 11.7991 4.06247 11.8084 4.05194ZM17.5045 10.6125H6.91157V10.2111H8.34854C8.537 10.2111 8.68966 10.0585 8.68966 9.87019C8.68966 9.6819 8.537 9.52924 8.34854 9.52924H7.77456C7.9202 7.21015 9.85289 5.36801 12.208 5.36801C14.5632 5.36801 16.4959 7.21015 16.6415 9.52924H9.93519C9.74673 9.52924 9.59424 9.6819 9.59424 9.87019C9.59424 10.0585 9.74673 10.2111 9.93519 10.2111H17.5045V10.6125Z" fill="#C4975E"/>
<path d="M20.2815 0H4.13474C3.65604 0 3.26648 0.389556 3.26648 0.868254V1.48417H2.94835C2.36296 1.48417 1.88672 1.96059 1.88672 2.54598C1.88672 3.13136 2.36296 3.60778 2.94835 3.60778H3.26648V5.06581H2.94835C2.36296 5.06581 1.88672 5.54205 1.88672 6.12761C1.88672 6.713 2.36296 7.18924 2.94835 7.18924H3.26648V8.64744H2.94835C2.36296 8.64744 1.88672 9.12368 1.88672 9.70925C1.88672 10.2946 2.36296 10.7709 2.94835 10.7709H3.26648V12.2291H2.94835C2.36296 12.2291 1.88672 12.7053 1.88672 13.2907C1.88672 13.8763 2.36296 14.3525 2.94835 14.3525H3.26648V15.8107H2.94835C2.36296 15.8107 1.88672 16.287 1.88672 16.8723C1.88672 17.4579 2.36296 17.9341 2.94835 17.9341H3.26648V19.3923H2.94835C2.36296 19.3923 1.88672 19.8686 1.88672 20.454C1.88672 21.0394 2.36296 21.5158 2.94835 21.5158H3.26648V22.1317C3.26648 22.6104 3.65604 23 4.13474 23H20.2815C20.7602 23 21.1499 22.6104 21.1499 22.1317V0.868254C21.1499 0.389556 20.7602 0 20.2815 0V0ZM3.26631 2.92588H2.94835C2.739 2.92588 2.56862 2.7555 2.56862 2.54598C2.56862 2.33663 2.739 2.16625 2.94835 2.16625H3.26631V2.92588ZM3.26631 6.50734H2.94835C2.739 6.50734 2.56862 6.33696 2.56862 6.12761C2.56862 5.91809 2.739 5.74788 2.94835 5.74788H3.26631V6.50734ZM3.26631 10.089H2.94835C2.739 10.089 2.56862 9.91859 2.56862 9.70925C2.56862 9.49973 2.739 9.32934 2.94835 9.32934H3.26631V10.089ZM3.26631 13.6706H2.94835C2.739 13.6706 2.56862 13.5002 2.56862 13.2907C2.56862 13.0814 2.739 12.911 2.94835 12.911H3.26631V13.6706ZM3.26631 17.2521H2.94835C2.739 17.2521 2.56862 17.0819 2.56862 16.8723C2.56862 16.663 2.739 16.4926 2.94835 16.4926H3.26631V17.2521ZM3.26631 20.8337H2.94835C2.739 20.8337 2.56862 20.6633 2.56862 20.454C2.56862 20.2445 2.739 20.0742 2.94835 20.0742H3.26631V20.8337ZM20.4678 22.1315C20.4678 22.2344 20.3843 22.3181 20.2815 22.3181H4.13474C4.03191 22.3181 3.94838 22.2344 3.94838 22.1315V0.868254C3.94838 0.765601 4.03191 0.681899 4.13474 0.681899H20.2815C20.3843 0.681899 20.4678 0.765601 20.4678 0.868254V22.1315Z" fill="#C4975E"/>
</g>
<defs>
<clipPath id="clip0_784_238">
<rect width="23" height="23" fill="white"/>
</clipPath>
</defs>
</svg>
