<svg width="23" height="23" viewBox="0 0 23 23" fill="none" xmlns="http://www.w3.org/2000/svg">
<path d="M22.1973 9.68401C22.0028 9.09605 21.387 7.45381 20.1094 5.79525C19.1896 4.60122 18.1166 3.64916 16.9201 2.96544C15.9521 2.4123 14.9022 2.03676 13.7843 1.83974C13.6907 0.808591 12.8798 0 11.8963 0C10.9132 0 10.1025 0.808108 10.0085 1.83878C8.97652 2.02058 8.00276 2.35517 7.09848 2.84038C5.92872 3.46803 4.87046 4.34857 3.95306 5.45756C3.66408 5.80688 4.16743 6.28842 4.45655 5.93895C6.06093 3.99949 8.04889 2.85086 10.3805 2.50994L10.3856 2.50946C12.4856 2.20104 14.7071 2.52544 16.5904 3.59735C17.7072 4.23302 18.7112 5.12099 19.5745 6.23665C20.6209 7.58878 21.2077 8.95679 21.4642 9.65089H2.32829C2.53305 9.0961 2.94844 8.1114 3.63969 7.05104C3.88784 6.67043 3.33903 6.25012 3.08796 6.63527C2.20849 7.98426 1.75689 9.19707 1.59553 9.68397C1.13513 9.80594 0.792643 10.2533 0.792643 10.7853C0.792643 11.4109 1.26607 11.9197 1.84799 11.9197H6.93587L3.99084 15.9923H0.336913C0.150847 15.9923 0 16.1544 0 16.3544C0 16.3544 0 22.6104 0 22.6377C0 22.7432 0.044742 22.84 0.11446 22.9069C0.174341 22.9645 0.252685 23 0.336913 23C0.350075 23 0.363282 22.9992 0.376489 22.9975L4.19528 22.5121C4.36486 22.4906 4.49262 22.336 4.49262 22.1524V20.8072L12.4924 18.683C12.7387 18.6341 12.9626 18.5083 13.1406 18.3184C13.1448 18.3139 13.1489 18.3094 13.1529 18.3046L17.2333 13.4671C17.6199 13.0484 17.6944 12.4197 17.4562 11.9197H21.9447C22.5266 11.9197 23 11.4108 23 10.7853C23 10.2534 22.6576 9.80604 22.1973 9.68401ZM12.9773 1.72955C12.5139 1.68483 12.0483 1.66885 11.5832 1.68155C11.3394 1.68812 11.096 1.70357 10.8529 1.72602C10.8036 1.73061 10.754 1.73457 10.705 1.73979C10.8314 1.15849 11.3176 0.724327 11.8963 0.724327C12.475 0.724327 12.9612 1.15849 13.0876 1.73979C13.0511 1.73587 13.014 1.73307 12.9773 1.72955ZM3.81875 21.8306L0.673826 22.2303V16.7166H3.81875V21.8306ZM16.7518 12.9603C16.7477 12.9648 16.7435 12.9694 16.7396 12.9741L12.6603 17.8102C12.5786 17.895 12.4764 17.9509 12.3642 17.9719C12.3565 17.9733 12.3488 17.9751 12.3412 17.977L4.49257 20.0611V16.4786C4.49257 16.4786 7.66611 12.09 7.66921 12.0857C7.85407 11.8303 8.2664 11.8932 8.45687 12.0965C8.6525 12.3054 8.68031 12.633 8.52304 12.8755C8.49173 12.9238 6.76036 15.7836 6.75829 15.7871C6.61432 16.0248 6.78035 16.3451 7.0417 16.3451H11.8326C11.9215 16.3451 12.0068 16.3073 12.0699 16.24C12.0699 16.24 15.9499 12.101 15.9542 12.0964C16.1736 11.8623 16.5374 11.864 16.7549 12.0996C16.9748 12.3379 16.9734 12.724 16.7518 12.9603ZM9.16039 11.9197H11.1188L7.67546 15.5929C7.67546 15.5929 9.04359 13.3395 9.0758 13.2898C9.34448 12.8755 9.36599 12.3488 9.16039 11.9197ZM9.67155 15.6207H8.60601L11.9099 12.0964C12.0166 11.9825 12.1582 11.9198 12.3087 11.9198C12.523 11.9198 12.7259 12.0561 12.8184 12.2639L9.67155 15.6207ZM13.932 12.0964C14.0388 11.9825 14.1804 11.9198 14.3308 11.9198C14.5461 11.9198 14.7476 12.0553 14.8406 12.2639L11.6937 15.6208H10.6282L13.932 12.0964ZM21.9446 11.1954H1.84799C1.63762 11.1954 1.46647 11.0115 1.46647 10.7853C1.46647 10.5592 1.63762 10.3753 1.84799 10.3753H21.9446C22.1549 10.3753 22.3261 10.5592 22.3261 10.7853C22.3261 11.0114 22.1549 11.1954 21.9446 11.1954Z" fill="#C4975E"/>
</svg>
