<svg width="23" height="23" viewBox="0 0 23 23" fill="none" xmlns="http://www.w3.org/2000/svg">
<g clip-path="url(#clip0_784_200)">
<path d="M22.8774 8.01024C19.8434 4.97585 15.8025 3.30493 11.5001 3.30493C7.19776 3.30493 3.15722 4.97544 0.122837 8.01024C-0.0409458 8.17402 -0.0409458 8.43876 0.122837 8.60254C0.28662 8.76632 0.551354 8.76632 0.715137 8.60254C3.59119 5.72607 7.42145 4.14228 11.5001 4.14228C15.5788 4.14228 19.409 5.72607 22.2851 8.60212C22.3668 8.6838 22.474 8.72485 22.5812 8.72485C22.6885 8.72485 22.7957 8.6838 22.8774 8.60212C23.0412 8.43876 23.0412 8.1736 22.8774 8.01024Z" fill="#C4975E"/>
<path d="M2.58475 10.4718C2.42097 10.6356 2.42097 10.9004 2.58475 11.0641C2.66643 11.1458 2.77367 11.1869 2.8809 11.1869C2.98814 11.1869 3.09537 11.1458 3.17705 11.0641C7.76591 6.47487 15.2329 6.47487 19.8222 11.0641C19.986 11.2279 20.2507 11.2279 20.4145 11.0641C20.5783 10.9004 20.5783 10.6356 20.4145 10.4718C15.4993 5.55668 7.50076 5.55584 2.58475 10.4718Z" fill="#C4975E"/>
<path d="M11.5001 10.2659C9.06012 10.2659 6.76883 11.2138 5.04764 12.9346C4.88386 13.0984 4.88386 13.3631 5.04764 13.5269C5.21143 13.6907 5.47616 13.6907 5.63994 13.5269C7.20279 11.9644 9.2838 11.1036 11.5001 11.1036C13.7164 11.1036 15.7974 11.9644 17.3603 13.5269C17.442 13.6086 17.5492 13.6496 17.6564 13.6496C17.7637 13.6496 17.8709 13.6086 17.9526 13.5269C18.1164 13.3631 18.1164 13.0984 17.9526 12.9346C16.2318 11.2138 13.9401 10.2659 11.5001 10.2659Z" fill="#C4975E"/>
<path d="M11.5 14.2068C9.98696 14.2068 8.75586 15.4379 8.75586 16.9513C8.75586 18.4647 9.98696 19.6958 11.5 19.6958C13.0134 19.6958 14.2445 18.4647 14.2445 16.9513C14.2445 15.4379 13.0134 14.2068 11.5 14.2068ZM11.5 18.8576C10.4486 18.8576 9.59362 18.0023 9.59362 16.9509C9.59362 15.8995 10.449 15.0441 11.5 15.0441C12.5509 15.0441 13.4067 15.8995 13.4067 16.9509C13.4067 18.0023 12.5514 18.8576 11.5 18.8576Z" fill="#C4975E"/>
</g>
<defs>
<clipPath id="clip0_784_200">
<rect width="23" height="23" fill="white"/>
</clipPath>
</defs>
</svg>
