<svg width="95" height="53" viewBox="0 0 95 53" fill="none" xmlns="http://www.w3.org/2000/svg">
<path d="M48.2451 2.64265L47.3139 0L46.3828 2.64265H43.3696L45.8073 4.2759L44.8762 6.91855L47.3139 5.2853L49.7517 6.91855L48.8205 4.2759L51.2583 2.64265H48.2451Z" fill="#333333"/>
<path d="M75.8939 10.929L74.9628 8.28637L74.0316 10.929H71.0184L73.4562 12.5623L72.525 15.2049L74.9628 13.5717L77.4005 15.2049L76.4694 12.5623L78.9071 10.929H75.8939Z" fill="#333333"/>
<path d="M43.1666 3.13089C43.0125 3.14577 42.8581 3.16129 42.7033 3.17748C35.3728 3.94406 29.1092 5.8945 23.8124 8.51991V10.7095C29.0996 7.93629 35.436 5.86003 42.9387 5.07545C43.0147 5.06749 43.0907 5.0597 43.1666 5.05208V3.13089Z" fill="#333333"/>
<path d="M16.9002 15.1274V12.6691C6.96629 19.7863 1.71736 29.1104 0 34.7853L2.00419 35.2967C3.55658 30.1671 8.20059 21.8081 16.9002 15.1274Z" fill="#333333"/>
<path d="M51.4612 4.86508C59.2622 5.32137 65.9337 7.56964 71.5067 10.6799V8.46283C65.8681 5.49721 59.1916 3.38226 51.4612 2.95056V4.86508Z" fill="#333333"/>
<path d="M79.8634 16.572C79.3945 16.1638 78.913 15.7596 78.4189 15.3605V12.8539C79.4241 13.612 80.3826 14.3919 81.2944 15.1856C85.6071 18.9393 88.8843 23.0057 91.1523 26.544C93.402 30.0536 94.7116 33.1267 95 34.8999L92.9427 35.1821C92.7127 33.7682 91.5598 30.9453 89.3597 27.513C87.178 24.1095 84.0182 20.1883 79.8634 16.572Z" fill="#333333"/>
<path d="M21.2874 10.929L20.3563 8.28637L19.4252 10.929H16.412L18.8497 12.5623L17.9186 15.2049L20.3563 13.5717L22.794 15.2049L21.8629 12.5623L24.3007 10.929H21.2874Z" fill="#333333"/>
<path fill-rule="evenodd" clip-rule="evenodd" d="M67.5737 47.109L68.3538 47.7806C65.8944 50.7156 62.9313 52.1831 59.4644 52.1831C57.2001 52.1831 55.2878 51.5115 53.7277 50.1684C52.9693 49.5217 52.3681 48.6959 51.9239 47.6911C51.4905 46.6862 51.2738 45.5371 51.2738 44.2437C51.2738 43.6111 51.3373 42.9667 51.4643 42.3104C51.112 42.4261 50.764 42.484 50.4202 42.484C49.5824 42.484 48.9278 42.2556 48.4566 41.7988C47.9984 41.3419 47.6907 40.831 47.5336 40.266C47.3765 39.701 47.298 39.0037 47.298 38.1742C47.298 37.3326 47.442 36.2387 47.73 34.8922C48.1096 33.125 48.7969 30.8408 49.7919 28.0397C49.2944 28.1119 48.594 28.2261 47.6907 28.3823C46.8005 28.5266 46.1721 28.6228 45.8056 28.6709C44.6928 33.3835 42.6899 37.0381 39.7967 39.6348C38.8018 40.5365 37.6171 41.2638 36.2425 41.8168C34.881 42.3698 33.3886 42.6463 31.7653 42.6463C30.142 42.6463 28.7674 42.2135 27.6416 41.3479C26.5157 40.4824 25.9528 39.3223 25.9528 37.8676C25.9528 36.413 26.5943 34.9223 27.8772 33.3955C25.7564 31.5802 24.6961 29.4343 24.6961 26.9578C24.6961 25.4791 24.9906 24.1266 25.5797 22.9004C26.1819 21.6741 26.9739 20.6463 27.9558 19.8168C28.9507 18.9872 30.1027 18.284 31.4118 17.7069C33.8992 16.6129 36.6614 16.0659 39.6986 16.0659H50.3613C50.597 16.0659 50.7672 16.1681 50.8719 16.3725C50.8588 16.4566 50.813 16.5348 50.7344 16.6069C50.669 16.679 50.6231 16.7452 50.597 16.8053C48.9475 18.6206 47.6645 21.1873 46.7482 24.5053C46.5387 25.2386 46.29 26.2064 46.002 27.4086L50.3221 26.7414C52.4428 22.5698 54.76 19.8168 57.2735 18.4823C58.0982 18.0375 58.8837 17.8151 59.6299 17.8151C60.3761 17.8151 60.9979 17.9894 61.4954 18.3381C62.0059 18.6747 62.2612 19.2217 62.2612 19.9791C62.2612 20.7244 61.9667 21.5179 61.3776 22.3594C60.8016 23.2009 60.0619 23.9403 59.1586 24.5774C57.352 25.8397 55.5062 26.7594 53.621 27.3364C53.0057 28.6348 52.3512 30.5763 51.6574 33.161C50.9766 35.7337 50.6362 37.5731 50.6362 38.6791C50.6362 39.7851 50.8915 40.3381 51.4021 40.3381C51.6137 40.3381 51.8448 40.2748 52.0953 40.1481C52.6242 38.7706 53.3525 37.4943 54.2803 36.3192C55.2228 35.1253 56.3008 34.0607 57.5142 33.1255C58.7277 32.1803 60.0657 31.4391 61.5283 30.9019C62.9909 30.3547 64.5293 30.0811 66.1436 30.0811C67.7579 30.0811 69.1555 30.5537 70.3364 31.4988C71.5173 32.444 72.1078 33.7672 72.1078 35.4685C72.1078 36.4734 71.8532 37.533 71.344 38.6473C70.8456 39.7516 70.1955 40.7565 69.3938 41.6619C68.6029 42.5573 67.6658 43.2985 66.5824 43.8855C65.499 44.4725 64.421 44.766 63.3484 44.766C62.2758 44.766 61.4254 44.4476 60.797 43.8109C60.1686 43.1741 59.8544 42.4329 59.8544 41.5873C59.8544 40.1347 60.5099 38.7318 61.8208 37.3788C63.1426 36.0157 64.8381 35.0109 66.9074 34.3642L67.2812 35.1551C66.2411 35.4735 65.2606 36.0058 64.3397 36.752C63.4188 37.4982 62.6984 38.2991 62.1783 39.1547C61.6691 40.0004 61.4145 40.7366 61.4145 41.3634C61.4145 42.6667 62.2054 43.3184 63.7872 43.3184C64.8923 43.3184 65.9973 42.8707 67.1024 41.9753C68.2183 41.0798 69.1067 40.0302 69.7676 38.8264C70.4393 37.6126 70.7752 36.4485 70.7752 35.3342C70.7752 34.21 70.3635 33.2946 69.5401 32.5883C68.7167 31.8719 67.6225 31.5137 66.2574 31.5137C64.8923 31.5137 63.4892 31.8918 62.0483 32.6479C60.6074 33.4041 59.329 34.3741 58.213 35.5581C57.108 36.742 56.1979 38.1051 55.4829 39.6472C54.7786 41.1793 54.4265 42.6866 54.4265 44.1691C54.4265 46.5668 55.2987 48.3278 57.043 49.452C58.0614 50.1087 59.2152 50.437 60.5045 50.437C61.8045 50.437 63.083 50.1485 64.3397 49.5714C65.5965 48.9844 66.6745 48.1636 67.5737 47.109ZM28.8394 32.5479C27.6088 31.1774 26.9936 29.5845 26.9936 27.7692C26.9936 25.2206 27.8445 23.1468 29.5463 21.5479C30.3318 20.7905 31.2286 20.1233 32.2366 19.5463C33.2577 18.9692 34.3639 18.5124 35.5552 18.1758C36.7465 17.8392 37.9312 17.5927 39.1095 17.4364C40.2877 17.2681 41.564 17.184 42.9386 17.184C44.3132 17.184 45.4979 17.2561 46.4929 17.4004C44.8565 19.2036 43.423 22.69 42.1924 27.8594C39.7182 28.0397 37.2832 28.5206 34.8875 29.302C32.4919 30.0834 30.4758 31.1654 28.8394 32.5479ZM27.5041 37.6152C27.5041 36.5091 27.9885 35.337 28.9572 34.0988C30.214 34.76 31.6082 35.0906 33.1399 35.0906C33.8599 35.0906 34.5603 35.0545 35.241 34.9824L34.7894 34.0266C34.4621 34.0507 33.8337 34.0627 32.9042 34.0627C31.9878 34.0627 30.9798 33.7922 29.8802 33.2512C32.446 30.931 36.4847 29.5605 41.9961 29.1397C41.4986 30.9671 40.844 32.7643 40.0324 34.5315C39.5873 35.5053 39.0767 36.3889 38.5007 37.1824C37.9247 37.9638 37.2832 38.6911 36.5763 39.3643C35.8694 40.0255 35.0577 40.5425 34.1413 40.9152C33.225 41.2758 32.2169 41.4561 31.1173 41.4561C30.0307 41.4561 29.1536 41.0895 28.486 40.3561C27.8314 39.6228 27.5041 38.7091 27.5041 37.6152ZM58.2553 19.7446C58.8968 19.2157 59.4924 18.9512 60.0423 18.9512C60.5005 18.9512 60.7295 19.2938 60.7295 19.9791C60.7295 21.1692 59.7412 22.4916 57.7644 23.9463C56.7171 24.7157 55.5323 25.3288 54.2101 25.7856C54.7992 24.4873 55.5585 23.1408 56.488 21.7463C57.0378 20.9408 57.6269 20.2736 58.2553 19.7446Z" fill="#333333"/>
</svg>
